<svg width="22" height="23" viewBox="0 0 22 23" fill="none" xmlns="http://www.w3.org/2000/svg">
<path d="M16.1316 14.1959H15.1121L14.7508 13.8475C16.2994 12.0408 17.0995 9.57605 16.6607 6.95641C16.0542 3.36892 13.0603 0.504088 9.44701 0.0653305C3.98834 -0.605711 -0.605711 3.98834 0.0653305 9.44701C0.504088 13.0603 3.36892 16.0542 6.95641 16.6607C9.57605 17.0995 12.0408 16.2994 13.8475 14.7508L14.1959 15.1121V16.1316L19.6804 21.6161C20.2095 22.1452 21.0741 22.1452 21.6032 21.6161C22.1323 21.087 22.1323 20.2224 21.6032 19.6933L16.1316 14.1959ZM8.38883 14.1959C5.17557 14.1959 2.58174 11.6021 2.58174 8.38883C2.58174 5.17557 5.17557 2.58174 8.38883 2.58174C11.6021 2.58174 14.1959 5.17557 14.1959 8.38883C14.1959 11.6021 11.6021 14.1959 8.38883 14.1959Z" fill="#ABA7A5"/>
</svg>
